<svg height="420" width="1440" xmlns="http://www.w3.org/2000/svg" xmlns:xlink="http://www.w3.org/1999/xlink"><defs><linearGradient id="a"><stop offset="0" stop-color="#1e2d69"/><stop offset=".99913" stop-color="#0c122c" stop-opacity="0"/></linearGradient><linearGradient id="b" x1="38.397%" x2="65.758%" xlink:href="#a" y1="41.964%" y2="63.803%"/><linearGradient id="c" x1="38.397%" x2="65.758%" xlink:href="#a" y1="41.96%" y2="63.811%"/><path id="d" d="m210 0h1230v420h-1440v-210c0-115.98 94.02-210 210-210z"/><mask id="e" fill="#fff"><use fill="#fff" fill-rule="evenodd" xlink:href="#d"/></mask></defs><g fill="none" fill-rule="evenodd"><use fill="#0f1b3d" xlink:href="#d"/><g fill-opacity=".75"><path d="m93.042 658.028c-33.282-179.395 64.377-338.037 457.623-371.392 393.247-33.356 413.417-249.545 629.08-443.874 215.663-194.33 609.319-330.912 719.655 32.001 110.337 362.913 67.457 599.428-291.158 898.039-358.616 298.61-736.114 236.909-892.112 213.958-155.997-22.95-589.807-149.337-623.088-328.732z" fill="url(#b)" mask="url(#e)" transform="matrix(-1 0 0 1 2040 0)"/><path d="m-81.643 617.549c-24-129.4 46.423-243.831 330-267.891 283.576-24.06 298.12-180 453.64-320.173 155.518-140.173 439.389-238.692 518.955 23.083 79.565 261.775 48.644 432.376-209.96 647.769-258.602 215.393-530.822 170.886-643.316 154.332-112.492-16.555-425.32-107.72-449.32-237.12z" fill="url(#c)" mask="url(#e)" transform="matrix(-1 0 0 1 1173.603 0)"/><path d="m-109.643 891.549c-24-129.4 46.423-243.831 330-267.891 283.576-24.06 298.12-180 453.64-320.173 155.518-140.173 439.389-238.692 518.955 23.083 79.565 261.775 48.644 432.376-209.96 647.769-258.603 215.393-530.823 170.886-643.316 154.332-112.492-16.555-425.32-107.72-449.32-237.12z" fill="url(#c)" mask="url(#e)" opacity=".401" transform="matrix(-1 0 0 1 1117.603 0)"/></g></g></svg>